<?xml version="1.0" encoding="iso-8859-1"?>
<!-- Generator: Adobe Illustrator 16.0.0, SVG Export Plug-In . SVG Version: 6.00 Build 0)  -->
<!DOCTYPE svg PUBLIC "-//W3C//DTD SVG 1.1//EN" "http://www.w3.org/Graphics/SVG/1.1/DTD/svg11.dtd">
<svg version="1.1" id="Capa_1" xmlns="http://www.w3.org/2000/svg" xmlns:xlink="http://www.w3.org/1999/xlink" x="0px" y="0px"
	 width="33.397px" height="33.397px" viewBox="0 0 33.397 33.397" style="enable-background:new 0 0 33.397 33.397;"
	 xml:space="preserve">
<g>
	<path d="M27.301,28.608c-0.404-0.471-1.547-1.461-1.547-1.461s1.491-0.821,1.171-1.127c-0.321-0.306-1.264-1.317-1.264-1.317
		s0.562-0.482,0.278-0.86c-0.283-0.377-0.798-1.11-0.798-1.11s0.894-0.432,0.568-0.848c-0.325-0.417-1.465-0.946-1.465-0.946
		s0.372-0.327-0.085-0.893s-1.398-1.289-1.398-1.289s1.391-0.613,1.133-1.598c-0.088-0.337-2.176-0.019-2.315-0.088
		c-0.139-0.07,0.266-3.044,0.209-3.852c-0.056-0.807-0.319-1.224-0.319-1.224s0.748-0.463,0.709-0.807
		c-0.013-0.104-0.26-0.339-0.445-0.668c-0.13-0.229-0.162-0.534-0.348-0.736c-0.164-0.18-0.462-0.189-0.64-0.307
		c-0.311-0.206-0.49-0.461-0.653-0.5c-0.516-0.124-0.751-0.375-0.792-0.626c-0.042-0.25,0.125-0.682,0.125-0.987
		s-0.111-0.417-0.111-0.417s-0.01-0.683-0.014-0.919c-0.004-0.236,0.139-0.75,0-1.042c-0.14-0.292-1.6-3.364-1.822-3.6
		S16.1,0.654,15.962,0.58c-0.138-0.073-0.362-0.709-0.403-0.556c-0.041,0.153,0.053,0.521,0.083,0.653
		c0.03,0.132,0.486,0.682,0.5,0.96s-0.149,0.556-0.25,0.765s0.083,0.361,0.209,0.236c0.125-0.124,0.385-0.392,0.385-0.392
		s0.171-0.165,0.366-0.096c0.194,0.07,0.598,1.238,0.598,1.238s0.445,1.571,0.417,1.752c-0.027,0.182-1.039,0.301-1.2,0.348
		c-0.161,0.047,0.004-0.278-0.441-0.125c-0.445,0.153-0.348,0.987-0.348,0.987s-0.389,0.25-0.389,0.765s0.473,0.737,0.473,0.737
		s-0.153,0.583,0.028,0.903c0.181,0.32,0.375,0.452,0.375,0.452s0.125,0.716,0.103,1.244c-0.023,0.529,0.231,1.475,0.199,1.683
		c-0.032,0.209-1.123,1.613-1.074,1.907c0.048,0.293,1.48,2.565,1.467,2.862s-1.867,1.389-2.283,1.641
		c-0.416,0.253,0.618,0.706,0.618,0.706s-1.163,0.739-1.466,0.933c-0.303,0.192,0.572,0.891,0.572,0.891s-1.657,0.512-2.137,0.659
		c-0.479,0.148,1.234,0.712,1.234,0.712s-0.995,1.274-1.494,1.479c-0.499,0.204,0.531,0.812,0.531,0.812s-1.095,0.646-1.536,0.905
		c-0.44,0.26,0.539,0.657,0.539,0.657s-1.841,0.924-2.319,1.162c-0.478,0.24,1.232,0.463,1.232,0.463s-1.549,0.84-2.146,1.164
		c-0.597,0.323,0.498,0.639,0.498,0.639s-1.167,0.691-1.637,0.972c-0.47,0.28,0.515,0.529,0.515,0.529s-1.854,0.501-1.75,1.252
		c0.057,0.407,1.445,0.892,3.17,0.918C10.655,33.417,11.766,33,12.914,33c0.475,0,2.532-0.042,4.663-0.077
		c0.943-0.017,2.819,0.177,3.66,0.16c1.346-0.023,1.815-0.146,2.065-0.479c0.392-0.522,0.375-0.919,0.375-0.919
		s2.064,0.46,2.594,0.043s-0.021-2.632-0.021-2.632S27.704,29.079,27.301,28.608z M18.715,14.667
		c-0.057,0.403-0.904,1.483-1.001,1.293c-0.307-0.599-0.417-1.543-0.459-1.877s0.459-0.709,0.459-0.709s0,0.403,0.271,0.5
		c0.271,0.098,0.73-0.208,0.73-0.208S18.771,14.263,18.715,14.667z"/>
</g>
<g>
</g>
<g>
</g>
<g>
</g>
<g>
</g>
<g>
</g>
<g>
</g>
<g>
</g>
<g>
</g>
<g>
</g>
<g>
</g>
<g>
</g>
<g>
</g>
<g>
</g>
<g>
</g>
<g>
</g>
</svg>
