<?xml version="1.0" encoding="iso-8859-1"?>
<!-- Generator: Adobe Illustrator 16.0.0, SVG Export Plug-In . SVG Version: 6.00 Build 0)  -->
<!DOCTYPE svg PUBLIC "-//W3C//DTD SVG 1.1//EN" "http://www.w3.org/Graphics/SVG/1.1/DTD/svg11.dtd">
<svg version="1.1" id="Capa_1" xmlns="http://www.w3.org/2000/svg" xmlns:xlink="http://www.w3.org/1999/xlink" x="0px" y="0px"
	 width="35.967px" height="35.967px" viewBox="0 0 35.967 35.967" style="enable-background:new 0 0 35.967 35.967;"
	 xml:space="preserve">
<g>
	<path d="M17.285,11.71c0.101-0.878-1.487-4.32-1.942-4.798c-0.222-0.233-1.054-0.478-1.776-0.741
		c-0.757-0.275-1.41-0.567-1.783-0.706c-0.729-0.271-1.526-0.558-1.926-0.718C9.459,4.587,8.919,4,8.919,4s0.023,1.476,0.01,1.783
		C8.917,6.089,8.409,5.93,8.4,5.431c-0.009-0.5-0.223-0.803-0.223-0.803S7.626,5.42,7.394,5.605
		C7.162,5.791,6.833,5.709,7.024,5.379c0.19-0.331,0.2-0.56,0.2-0.56s-0.302-0.003-0.29-0.199c0.01-0.196,0.023-0.422,0.023-0.422
		S6.56,4.658,6.439,4.917c-0.121,0.258-0.49,0.157-0.347-0.245c0.144-0.402,0.604-0.939,0.604-0.939l0.143-0.38
		c0,0-0.468-0.082-0.689-0.094C5.928,3.249,6.068,2.92,6.423,2.872C6.778,2.822,7.792,2.89,7.792,2.89s0.354-0.166,0.67-0.136
		c0.525,0.051,0.643,0.252,0.643,0.252s1.125,0.046,1.753,0.262c0.629,0.215,1.11,0.655,2.204,0.982
		c1.094,0.328,1.868,0.377,2.695,0.446c0.688,0.057,1.141,0.506,1.448,0.548c0.162,0.022,0.52-0.019,0.608-0.378
		C17.9,4.506,17.72,4.108,17.72,4.108s0.008,0.688-0.285,0.673c-0.257-0.012-0.133-0.323-0.077-0.53
		c0.054-0.207,0.085-0.563-0.056-0.714C17.211,3.439,16.905,2,17.332,2.189c0.02-0.324-0.019-0.735-0.02-0.877
		C17.31,0.899,17.94-0.025,19.206,0c1.266,0.026,1.523,1.161,1.579,1.453c0.058,0.293-0.012,1.35-0.087,1.749
		c-0.073,0.399-0.349,1.034-0.349,1.034s0.015,0.098,0.132,0.18c0.116,0.082,0.226,0.588,0.062,0.796
		c0.426-0.29,1.633-0.77,2.346-1.141c0.714-0.371,3.338-0.795,4.278-0.918c0.941-0.123,2.711,0.504,2.754,0.643
		c0.043,0.14-0.665,0.075-0.665,0.075s0.734,0.725,0.609,0.846C29.76,4.817,29.461,4.7,29.461,4.7s-0.201,0.505-0.348,0.529
		c-0.147,0.023-0.174-0.363-0.174-0.363s-0.287,0.469-0.423,0.466c-0.139-0.003,0.025-0.726,0.025-0.726S28.29,4.73,28.176,4.798
		s-0.067,0.892-0.275,0.974c-0.208,0.081-0.357-1.501-0.627-1.583c-0.271-0.082-0.752-0.027-1.139,0.081s-0.96,0.456-1.539,0.658
		c-0.577,0.202-1.348,0.359-1.348,0.359l-1.838,1.572c0,0,1.35,1.17,1.395,2.105c0.046,0.936-1.003,2.836-0.792,5.786
		c0.213,2.95,1.689,9.629,1.689,9.629s1.541,7.662,1.66,8.329c0.12,0.666-0.354,1.209-0.578,1.454
		c-0.225,0.244-3.018,0.538-3.168,0.174c-0.151-0.364-0.498-0.546-0.498-0.546s-0.377,0.987-0.604,1.028
		c-0.227,0.04-0.549-0.312-0.549-0.312s-0.172,0.631-0.342,0.927c-0.169,0.296-1.037,0.458-1.472,0.531s-5.146-2.456-5.188-2.849
		c-0.043-0.392,0.417-1.167,0.482-1.713c0.066-0.545,1.672-13.918,2.147-15.421C16.072,14.479,17.186,12.587,17.285,11.71z"/>
</g>
<g>
</g>
<g>
</g>
<g>
</g>
<g>
</g>
<g>
</g>
<g>
</g>
<g>
</g>
<g>
</g>
<g>
</g>
<g>
</g>
<g>
</g>
<g>
</g>
<g>
</g>
<g>
</g>
<g>
</g>
</svg>
