<?xml version="1.0" encoding="iso-8859-1"?>
<!-- Generator: Adobe Illustrator 16.0.0, SVG Export Plug-In . SVG Version: 6.00 Build 0)  -->
<!DOCTYPE svg PUBLIC "-//W3C//DTD SVG 1.1//EN" "http://www.w3.org/Graphics/SVG/1.1/DTD/svg11.dtd">
<svg version="1.1" id="Capa_1" xmlns="http://www.w3.org/2000/svg" xmlns:xlink="http://www.w3.org/1999/xlink" x="0px" y="0px"
	 width="34.842px" height="34.842px" viewBox="0 0 34.842 34.842" style="enable-background:new 0 0 34.842 34.842;"
	 xml:space="preserve">
<g>
	<path d="M20.551,11.438c0.008,0.325,0.116,5.063-0.022,7.651c-0.14,2.589-0.568,4.832-0.724,5.734
		c-0.154,0.902-0.714,2.304-0.793,2.608c-0.078,0.305-0.306,0.336-0.306,0.336s-0.299,2.244-0.325,3.176
		c-0.025,0.931,0.183,1.417,0.483,1.787c0.3,0.37,1.355,0.792,1.355,0.792s0.68,0.202,1.233,0.41s0.046,0.671-0.462,0.671
		s-2.521,0-2.521,0l-0.255-0.186l-0.23,0.186h-1.757c0,0-0.092-0.788-0.023-0.948c0.068-0.161,0.507-1.081,0.542-2.355
		c0.035-1.274-0.294-4.149-0.294-4.149s-0.522-0.021-0.42-0.478s0.824-3.709,0.824-3.709s-2.052,4.118-2.484,4.237
		c-0.433,0.12-0.24-0.39-0.24-0.39s-1.917,2.609-1.968,2.75c-0.051,0.141-0.19,0.418-0.19,0.949c0,0.532-0.971,2.566-0.971,2.566
		l0.139,0.994c0,0,0.046,0.854-0.578,0.763c-0.625-0.092-1.734-0.788-1.595-1.757c0.139-0.969,0.254-1.777,0.254-1.777v-1.344
		c0,0-0.115-0.901,0.67-0.948c0.485-0.027,0.994,0.208,0.994,0.208s0.631-2.762,1.411-3.93c0.779-1.168,1.618-2.289,1.803-2.705
		s0.665-3.871,0.578-4.323c-0.086-0.453-0.347-1.386,0.008-2.182c0.228-0.51,1.333-2.001,1.449-2.441
		c0.116-0.44,0.048-0.927-0.231-1.202c-0.279-0.275-3.748-3.693-3.748-3.693s-1.812-0.469-1.795-1.278s1.982-3.283,3.069-3.19
		c1.086,0.092,1.679,0.091,1.873-0.162c0.194-0.253,0.601-0.786,0.601-0.786s0.108-0.954,0.216-1.69
		C16.23,0.898,16.876-0.019,18.264,0c1.389,0.019,2.059,1.545,2.128,1.799c0.068,0.254-0.416,0.67-0.416,0.67l-0.37,0.948
		c0,0-0.116,0.809-0.069,1.017s-0.399,0.011-0.399,0.011L18.679,5.52c0,0,1.342,0.508,1.942,1.248
		c0.709-0.3,1.812-0.532,1.988-0.647c0.177-0.116,0.324-1.38,0.37-1.549s0.517,0.085,0.416,0.625
		C23.351,5.44,23.35,5.797,23.35,5.797s1.672-0.378,1.919-0.417c0.245-0.038,0.304,0.273,0.304,0.273s0.31-0.221,0.312,0.136
		c0.003,0.417-0.216,0.47-0.216,0.47s0.006,0.105-0.149,0.223c-0.157,0.118-0.753,0.551-1.138,0.787
		c-0.383,0.236-0.663,0.476-0.663,0.476s0.14,0.606-0.3,0.757c-0.438,0.15-1.549,0.532-1.549,0.532s0.233,1.662,0.186,1.906
		C22.008,11.185,20.545,11.112,20.551,11.438z"/>
</g>
<g>
</g>
<g>
</g>
<g>
</g>
<g>
</g>
<g>
</g>
<g>
</g>
<g>
</g>
<g>
</g>
<g>
</g>
<g>
</g>
<g>
</g>
<g>
</g>
<g>
</g>
<g>
</g>
<g>
</g>
</svg>
