<?xml version="1.0" encoding="iso-8859-1"?>
<!-- Generator: Adobe Illustrator 16.0.0, SVG Export Plug-In . SVG Version: 6.00 Build 0)  -->
<!DOCTYPE svg PUBLIC "-//W3C//DTD SVG 1.1//EN" "http://www.w3.org/Graphics/SVG/1.1/DTD/svg11.dtd">
<svg version="1.1" id="Capa_1" xmlns="http://www.w3.org/2000/svg" xmlns:xlink="http://www.w3.org/1999/xlink" x="0px" y="0px"
	 width="35.04px" height="35.04px" viewBox="0 0 35.04 35.04" style="enable-background:new 0 0 35.04 35.04;" xml:space="preserve"
	>
<g>
	<path d="M27.733,20.168c-0.667-0.354-1.756-1.333-1.756-1.333s1.445-3.045,1.445-3.624s-0.467-1.823-0.778-1.979
		c-0.311-0.156-0.777-0.667-1.267-0.4s-1.534,1.689-2.334,1.711c-0.39,0.011-1.299-0.549-2.224-0.8
		c-0.976-0.265-1.955-0.222-1.955-0.222s-0.054-1.259-0.245-1.067c-0.489,0.489-0.956,0.267-0.956,0.267s0.934-4.668,0.756-5.001
		s-0.645-0.8-0.645-0.8V6.297c0,0,0.119-0.107,0.223-0.2c0.103-0.092,0-0.333,0-0.333l5.312-3.135
		c-2.556-2.867-8.001-1.978-11.226,0.956c-0.313,0.153-1.089,0.578-1.089,0.578S10.04,4.652,9.618,3.518
		c0.111-0.556-0.52-0.682-0.52-0.682L9.062,2.429c0,0,0-0.578-0.178-0.889C8.706,1.228,7.906,0.228,7.528,0.095
		c-0.378-0.134-1.089-0.2-1.942,0.32c-0.854,0.521-0.77,1.503-0.77,1.503S5.09,2.723,5.171,2.962
		c0.082,0.24,0.445,0.467,0.445,0.467s0.289,0.667,0.578,0.845c0.289,0.178,0.674,0.502,0.822,0.623s0.623-0.022,0.623-0.022
		l0.267,0.533c0,0-1.333,1.334-1.4,2.179C6.439,8.432,7.795,9.232,7.795,9.232s1.628,1.092,1.823,1.222
		c0.195,0.131,0.178,0.667,0.578,0.889c-0.022,0.223-0.223,1.178-0.267,1.979c-0.156,2.868,0.089,3.89,1.394,4.46
		c0.594,0.259,1.251,0.386,1.629,0.764c0.489,0.935,1.623,1.778,1.734,2.557c0.111,0.777-0.378,2.064-0.511,2.444
		c-0.133,0.381,0.407,0.204,0.422,0.468c0.015,0.263,0,0.956-0.222,1.601c-0.222,0.646-0.763,1.104-0.956,1.289
		c-0.192,0.186,0.312,0.445,0.178,0.601c-0.134,0.155-1.501,2.049-1.756,2.4c-0.255,0.354,0.845,0.889,0.623,1.201
		c-0.223,0.311-0.845,0.511-1.022,0.867c-0.178,0.355-0.111,1.245-0.312,1.688l0.778,0.4c0,0,0.245-0.4,0.422-0.689
		c0.177-0.289,0.467,1.667,0.911,1.667c0.689,0,2.134,0,2.134,0s0.133-0.488-0.223-0.6c-0.355-0.111-0.889-0.378-0.889-0.378
		l0.022-2.269c0,0,0.239-0.251,0.444-0.467c0.206-0.215,0.689,0.557,1,0.467c0.311-0.089,0.834-0.313,1.312-0.511
		s1.267-0.044,1.556-0.178s1.623-1.245,1.667-1.623s-0.111-0.867,0.178-1.156s0.533,0.2,0.689-0.133s0.551-1.291,0.688-1.623
		c0.139-0.332,0.757-0.066,0.979-0.377c0.222-0.312,0.6-0.601,0.845-1.178c0.245-0.578,1.067-0.534,1.4-1.423
		c0.333-0.89,0.688-3.023,0.688-3.023s0.516,0.427,1.179,0.978c0.664,0.552,1.623,1.423,2.022,1.468c0.4,0.044,1.356-1.4,1.29-1.756
		C30.157,20.901,28.29,20.464,27.733,20.168z M16.509,12.143c0,0-0.831,0.313-1.023-0.733c-0.192-1.046-0.556-3.023-0.556-3.023
		l1.178-0.623c0,0,0.4,0.333,0.822,0.511C16.753,8.764,16.509,12.143,16.509,12.143z"/>
</g>
<g>
</g>
<g>
</g>
<g>
</g>
<g>
</g>
<g>
</g>
<g>
</g>
<g>
</g>
<g>
</g>
<g>
</g>
<g>
</g>
<g>
</g>
<g>
</g>
<g>
</g>
<g>
</g>
<g>
</g>
</svg>
